<svg fill="none" height="45" viewBox="0 0 306 45" width="306" xmlns="http://www.w3.org/2000/svg"><path clip-rule="evenodd" d="m37.7516 4.53729h25.7285c1.682 0 2.9902 1.36741 2.9902 2.98343v25.66988c0 1.6782-1.3705 2.9834-2.9902 2.9834h-25.7285c-1.682 0-2.9902-1.3674-2.9902-2.9834v-25.66988c0-1.61602 1.3082-2.98343 2.9902-2.98343zm12.2101 12.36881c0 .6837-.3115 1.3674-.9344 1.7403l-.6853.3729c-.4361.2487-.6853.7459-.6853 1.2431v9.6962c0 .6837-.5606 1.2431-1.2459 1.2431h-.4361c-.6852 0-1.2459-.5594-1.2459-1.2431v-9.6962c0-.4972-.3115-.9323-.6852-1.2431l-.623-.3729c-.623-.3729-.9345-1.0566-.9345-1.7403l.5607-6.96134c0-.24862.1869-.43509.4361-.43509h.3738c.2492 0 .436.18647.436.43509l.0623 5.28314c0 .1243.1246.2486.2492.2486h.3115c.1246 0 .2492-.1243.2492-.2486l.3738-5.28314c0-.24862.1869-.43509.436-.43509h.3738c.2492 0 .4361.18647.4361.43509l.3738 5.28314c0 .1243.1246.2486.2492.2486h.3737c.1246 0 .2492-.1243.2492-.2486l.0623-5.28314c0-.24862.1869-.43509.4361-.43509h.3738c.2492 0 .436.18647.436.43509zm3.6755-4.8481c0-1.2431.9345-2.42402 2.2427-2.54833h.2492c1.3705 0 2.4918 1.11883 2.4918 2.48623v17.9627c0 .6837-.5607 1.2431-1.2459 1.2431h-.4984c-.6852 0-1.2459-.5594-1.2459-1.2431v-6.9614c-.0623-.3729-.2492-.6837-.5607-.808-.8721-.3729-1.4328-1.3052-1.4328-2.2375z" fill="#2ecb70" fill-rule="evenodd"/><path clip-rule="evenodd" d="m98.3037 4.53729h-25.7907c-1.682 0-2.9902 1.36741-2.9902 2.98343v25.73208c0 1.616 1.3082 2.9834 2.9902 2.9834h25.7907c1.6198 0 2.9903-1.3053 2.9903-2.9834v-25.73208c0-1.61602-1.3083-2.98343-2.9903-2.98343zm-5.1705 24.24031c.0623.2486 0 .5594-.1869.7459-.3738.3729-.7476.7458-1.1214 1.1809-.3738.373-.7475.3108-.9967-.1864-.4207-.8674-1.1443-2.3773-1.8471-3.8433-.8582-1.7906-1.6852-3.516-1.8907-3.9261-.2492-.4972-.4984-.5594-.9344-.1864-.7211.5501-1.7021 1.3596-2.5693 2.0752-.4066.3355-.7881.6503-1.1062.9082-.041.0409-.0853.0817-.1303.1232-.2284.2105-.4722.4353-.3681.747.0623.7458.1246 1.4295.2492 2.1132.0623.3108 0 .6216-.2492.808l-.7476.7459c-.3737.3108-.6852.2486-.9344-.1243l-1.3082-2.4241c-.0623-.1243-.1869-.2486-.2492-.3107-.1246-.1243-.1869-.1865-.3115-.2487l-2.4296-1.3052c-.3737-.2486-.436-.6216-.1246-.9323l.7476-.7459c.2492-.1864.4984-.3108.8099-.2486.3211.0291.6423.0719.9699.1156.3714.0494.751.1 1.1481.133.3738.1243.623-.1864.8722-.4972.5514-.7195 1.3628-1.6983 2.0801-2.5637.3362-.4055.6517-.7861.9101-1.1034.3738-.4351.3115-.6837-.1869-.9324-.2896-.1444-1.243-.5968-2.4112-1.1509-1.8471-.8763-4.231-2.0072-5.3758-2.5783-.4984-.1865-.5607-.6216-.1869-.9945l1.1213-1.1188c.1869-.1865.4984-.2486.7476-.1865.771.2007 3.1296.7254 5.4642 1.2447 2.0037.4457 3.9898.8875 4.9393 1.1172.3115.0622.5606-.0621.7475-.2486.2176-.2171.579-.5866 1.0105-1.0279 1.1751-1.2015 2.8705-2.9351 3.5995-3.5716.7475-.68366 1.8066-.68366 2.5541 0 .8099.7459.8099 1.9268.1246 2.6727-.6379.7274-2.3757 2.4191-3.58 3.5915-.4422.4305-.8124.7909-1.0299 1.0079-.1869.1865-.2492.4973-.1869.7459.3228 1.1808.9346 3.9684 1.467 6.3942.3924 1.7878.7417 3.3791.9003 3.9856z" fill="#2eaae2" fill-rule="evenodd"/><g fill="#313e48"><path d="m104.222 36.2362h21.928v-6.5263h-13.892v-6.1533h11.836v-6.7127h-11.836v-5.8425h13.892v-6.46411h-21.928z"/><path d="m169.446 11.1257c-3.301 0-5.731.9945-7.6 3.7293h-.124l-.997-2.9835h-5.856v33.1285h7.6v-10.442h.125c1.432 1.616 3.551 2.3619 6.478 2.3619 6.666 0 11.525-5.7182 11.525-12.5553v-.9323c.063-7.645-5.482-12.3066-11.151-12.3066zm-1.931 19.5166c-3.489 0-5.108-2.9835-5.108-6.6506s1.619-6.5262 5.108-6.5262 5.108 2.9834 5.108 6.6505c-.062 3.6671-1.682 6.5263-5.108 6.5263z"/><path d="m206.575 23.1837c0-8.2044-5.794-12.1202-12.086-12.1202-7.039 0-12.583 4.9724-12.583 12.6174v.8081c0 7.7693 5.98 12.493 12.895 12.493 5.607 0 10.59-2.7348 11.774-8.3908h-7.164c-.748 1.9268-2.43 2.5483-4.423 2.5483-3.177 0-4.922-2.1754-5.295-5.2831h16.82c0-.4973.062-1.6782.062-2.6727zm-16.758-2.1754c.374-2.5484 1.869-4.4751 4.859-4.4751 2.617 0 4.299 1.8024 4.299 4.4751z"/><path d="m222.647 11.1257c-3.114 0-5.544 1.1809-7.226 3.9157h-.125l-.996-3.1699h-5.981v24.3647h7.663v-14.1713c0-3.1077 1.495-4.5994 3.987-4.5994 2.118 0 3.737 1.3674 3.737 4.5994v14.1091h7.787v-16.4088c0-4.7238-2.865-8.6395-8.846-8.6395z"/><path d="m243.081 20.4489c-1.309-.2486-2.181-.8702-2.181-2.1754 0-1.1188.81-1.989 2.554-1.989 1.932 0 2.866.9945 2.866 2.6105h6.977v-.5594c0-5.0966-4.734-7.2721-9.967-7.2721-4.672 0-10.03 1.989-10.03 7.7072v.3729c0 1.6782.623 3.2942 1.807 4.5373 2.429 2.4241 6.167 2.6727 8.659 3.2942 2.118.5594 2.616 1.4918 2.616 2.6105 0 1.4917-1.183 2.1754-2.928 2.1754-2.118 0-3.364-1.1809-3.488-3.4806h-6.915v.5594c.249 5.9668 4.859 8.1422 10.466 8.1422 4.983 0 10.466-2.2997 10.466-8.0179v-.4972c0-1.6782-.561-3.3564-1.62-4.4752-2.492-2.6105-6.23-3.0456-9.282-3.5428z"/><path d="m263.202 11.8716h-7.724v24.3646h7.724z"/><path d="m153.311 11.8716h-8.472l-4.111 6.1533-4.112-6.1533h-8.846l8.41 11.4986-9.531 12.866h8.597l5.17-7.3343 5.171 7.3343h8.784l-9.345-13.1146z"/><path d="m259.278 0c-2.554 0-4.61 2.05111-4.61 4.59945s2.056 4.59945 4.61 4.59945 4.61-2.05111 4.61-4.59945-2.056-4.59945-4.61-4.59945z"/><path d="m277.094 11.8715v-.808c0-2.05107 1.433-4.16433 3.738-4.22648.374 0 2.243-.06216 2.243-.06216l.062-6.77486h-2.803c-6.604.124309-10.902 5.15884-10.902 11.4365v.435h-4.548v5.8426h4.548v18.5221h7.725v-18.5843h5.046l6.479 16.844-4.486 10.4419h8.099l13.705-33.1284h-8.036l-5.295 14.6063-4.922-14.6063z"/><path d="m104.222 36.2362h21.928v-6.5263h-13.892v-6.1533h11.836v-6.7127h-11.836v-5.8425h13.892v-6.46411h-21.928z"/><path d="m169.446 11.1257c-3.301 0-5.731.9945-7.6 3.7293h-.124l-.997-2.9835h-5.856v33.1285h7.6v-10.442h.125c1.432 1.616 3.551 2.3619 6.478 2.3619 6.666 0 11.525-5.7182 11.525-12.5553v-.9323c.063-7.645-5.482-12.3066-11.151-12.3066zm-1.931 19.5166c-3.489 0-5.108-2.9835-5.108-6.6506s1.619-6.5262 5.108-6.5262 5.108 2.9834 5.108 6.6505c-.062 3.6671-1.682 6.5263-5.108 6.5263z"/><path d="m206.575 23.1837c0-8.2044-5.794-12.1202-12.086-12.1202-7.039 0-12.583 4.9724-12.583 12.6174v.8081c0 7.7693 5.98 12.493 12.895 12.493 5.607 0 10.59-2.7348 11.774-8.3908h-7.164c-.748 1.9268-2.43 2.5483-4.423 2.5483-3.177 0-4.922-2.1754-5.295-5.2831h16.82c0-.4973.062-1.6782.062-2.6727zm-16.758-2.1754c.374-2.5484 1.869-4.4751 4.859-4.4751 2.617 0 4.299 1.8024 4.299 4.4751z"/><path d="m222.647 11.1257c-3.114 0-5.544 1.1809-7.226 3.9157h-.125l-.996-3.1699h-5.981v24.3647h7.663v-14.1713c0-3.1077 1.495-4.5994 3.987-4.5994 2.118 0 3.737 1.3674 3.737 4.5994v14.1091h7.787v-16.4088c0-4.7238-2.865-8.6395-8.846-8.6395z"/><path d="m243.081 20.4489c-1.309-.2486-2.181-.8702-2.181-2.1754 0-1.1188.81-1.989 2.554-1.989 1.932 0 2.866.9945 2.866 2.6105h6.977v-.5594c0-5.0966-4.734-7.2721-9.967-7.2721-4.672 0-10.03 1.989-10.03 7.7072v.3729c0 1.6782.623 3.2942 1.807 4.5373 2.429 2.4241 6.167 2.6727 8.659 3.2942 2.118.5594 2.616 1.4918 2.616 2.6105 0 1.4917-1.183 2.1754-2.928 2.1754-2.118 0-3.364-1.1809-3.488-3.4806h-6.915v.5594c.249 5.9668 4.859 8.1422 10.466 8.1422 4.983 0 10.466-2.2997 10.466-8.0179v-.4972c0-1.6782-.561-3.3564-1.62-4.4752-2.492-2.6105-6.23-3.0456-9.282-3.5428z"/><path d="m263.202 11.8716h-7.724v24.3646h7.724z"/><path d="m153.311 11.8716h-8.472l-4.111 6.1533-4.112-6.1533h-8.846l8.41 11.4986-9.531 12.866h8.597l5.17-7.3343 5.171 7.3343h8.784l-9.345-13.1146z"/><path d="m259.278 0c-2.554 0-4.61 2.05111-4.61 4.59945s2.056 4.59945 4.61 4.59945 4.61-2.05111 4.61-4.59945-2.056-4.59945-4.61-4.59945z"/><path d="m277.094 11.8715v-.808c0-2.05107 1.433-4.16433 3.738-4.22648.374 0 2.243-.06216 2.243-.06216l.062-6.77486h-2.803c-6.604.124309-10.902 5.15884-10.902 11.4365v.435h-4.548v5.8426h4.548v18.5221h7.725v-18.5843h5.046l6.479 16.844-4.486 10.4419h8.099l13.705-33.1284h-8.036l-5.295 14.6063-4.922-14.6063z"/></g><path clip-rule="evenodd" d="m28.7186 4.53729h-25.72837c-1.61971 0-2.99023 1.36741-2.99023 2.98343v25.66988c0 1.616 1.30822 2.9834 2.99023 2.9834h25.72837c1.6198 0 2.9903-1.3052 2.9903-2.9834v-25.66988c0-1.61602-1.3082-2.98343-2.9903-2.98343zm-1.9311 11.87151c.3114 0 .6229 0 .7475.373.1246.3729.1246.808.0623 1.1187-.3115.373-.6852.4351-1.059.4973-.4361.0621-.4984.2486-.3738.5594.4361.8701.5607 3.5428.5607 4.848v4.9103c-.0623.8701-.3738 1.1188-1.0591 1.1188-.2059 0-.4681.0056-.7561.0117-.6704.0144-1.4807.0317-2.0472-.0117-.5607-.0622-.8722-.4351-.8722-1.0567v-1.7403c0-.5594-.0623-.6837-.5606-.6837h-10.8396c-.4984 0-.5607.1865-.5607.6837v1.7403c0 .6216-.31146 1.0567-.87213 1.0567-.55928.0429-1.32654.0265-1.994.0123-.29904-.0064-.57804-.0123-.80934-.0123-.74755 0-1.05903-.2487-1.05903-1.1188v-4.9103c0-1.3052.18688-3.9157.56066-4.848.1246-.3108.0623-.4973-.37377-.5594-.43608-.0622-.74756-.1243-1.05904-.4973-.24919-.3107-.24919-.7458-.1246-1.1187.1246-.373.43608-.373.74756-.373h1.30822c.31149 0 .43608-.1243.56067-.435l.00002-.0001c.37377-.9323.87214-2.1754 1.30821-3.1077.49837-1.0566 1.37052-1.9268 2.49187-1.9268h10.4035c1.1213.0622 1.9935.9323 2.4918 1.9268.4361.9323.9344 2.1753 1.3082 3.1076l.0001.0002c.1246.3107.2492.435.5606.435zm-19.43652 5.6561c0 .808.74755 1.4917 1.55741 1.4296h.18689c.80985 0 1.43282-.7459 1.43282-1.5539 0-.9323-.56067-1.616-1.61971-1.616-.99674 0-1.55741.6837-1.55741 1.616zm1.18363-4.6616c-.31148.9945-.31148.9945.62296.9945h13.45603c.9344 0 .9344 0 .623-.9945-.1558-.4972-.3271-.9789-.4984-1.4606s-.3426-.9634-.4984-1.4607c-.3738-1.1809-.8721-1.5538-1.9312-1.5538h-8.8461c-1.059 0-1.55737.4351-1.93115 1.5538-.37378.9945-.68526 1.9268-.99674 2.9213zm12.70849 4.6616c0 .808.7475 1.4917 1.5574 1.4296h.1246c.8098 0 1.4328-.7459 1.4328-1.5539.0623-.9323-.5607-1.616-1.5574-1.616-.9968 0-1.5574.6837-1.5574 1.616z" fill="#ffc600" fill-rule="evenodd"/></svg>