<svg fill="none" height="47" viewBox="0 0 47 47" width="47" xmlns="http://www.w3.org/2000/svg"><path d="m24.5181 15.3839c3.7172 0 6.7305-3.0133 6.7305-6.73045 0-3.71713-3.0133-6.73046-6.7305-6.73046-3.7171 0-6.7304 3.01333-6.7304 6.73046 0 3.71715 3.0133 6.73045 6.7304 6.73045z" fill="#7b83eb"/><path d="m24.0373 10.0957h-6.0942c.0097.0449.02.0897.0307.1345l.0027.0113c.0099.0412.0203.0823.0309.1233.4429 1.6796 1.5175 3.1233 2.9994 4.0295 1.4819.9063 3.2566 1.2051 4.9535.8341v-3.2097c-.0015-.5096-.2046-.9978-.5649-1.3581s-.8486-.5634-1.3581-.5649z" fill="#000" opacity=".1"/><path d="m22.5951 11.5379h-4.1593c.546 1.1509 1.4073 2.1233 2.484 2.8041s2.3245 1.0421 3.5983 1.0419v-1.923c-.0015-.5096-.2046-.9978-.5649-1.3581s-.8486-.5634-1.3581-.5649z" fill="#000" opacity=".2"/><path d="m39.6617 15.8647c2.7878 0 5.0478-2.26 5.0478-5.0479 0-2.7878-2.26-5.0478-5.0478-5.0478-2.7879 0-5.0479 2.26-5.0479 5.0478 0 2.7879 2.26 5.0479 5.0479 5.0479z" fill="#5059c9"/><path d="m43.9881 17.3069h-11.3374c-.2445 0-.4789.0971-.6518.27-.1728.1728-.2699.4073-.2699.6517v11.697c-.0314 1.6928.5197 3.345 1.561 4.6799 1.0414 1.335 2.5097 2.2717 4.1593 2.6533 1.0507.2205 2.1373.2039 3.1808-.0486 1.0434-.2525 2.0175-.7345 2.8511-1.411s1.5059-1.5304 1.9678-2.4995c.4619-.9692.7019-2.0291.7024-3.1027v-10.7267c0-.5738-.2279-1.124-.6336-1.5297s-.956-.6337-1.5297-.6337z" fill="#5059c9"/><path d="m36.0561 19.4703v13.7013c.0016 2.5393-.835 5.0081-2.38 7.0232s-3.712 3.4639-6.1646 4.1215c-2.4527.6575-5.0538.4871-7.3997-.485-2.3458-.972-4.3052-2.6912-5.574-4.8907-.2775-.4613-.5187-.9435-.7211-1.4423-.1888-.4703-.3478-.952-.476-1.4422-.2377-.9431-.3588-1.9119-.3605-2.8845v-13.7013c-.0004-.2842.0553-.5657.1639-.8284.1086-.2626.2679-.5012.4689-.7022.2009-.201.4396-.3603.7022-.4689s.5441-.1643.8283-.1639h18.7492c.2842-.0004.5657.0553.8283.1639.2627.1086.5013.2679.7023.4689.2009.201.3603.4396.4689.7022.1085.2627.1642.5442.1639.8284z" fill="#7b83eb"/><g fill="#000"><path d="m22.5951 11.5379h-4.1593c.546 1.1509 1.4073 2.1233 2.484 2.8041s2.3245 1.0421 3.5983 1.0419v-1.923c-.0015-.5096-.2046-.9978-.5649-1.3581s-.8486-.5634-1.3581-.5649z" opacity=".2"/><path d="m25.9604 17.3069v18.2732c-.0001.4348-.1489.8564-.4218 1.1949s-.6533.5733-1.0782.6656c-.1357.0404-.2767.0598-.4182.0577h-10.2255c-.1888-.4703-.3478-.952-.476-1.4422-.2377-.9431-.3588-1.9119-.3605-2.8845v-13.7013c-.0004-.2842.0553-.5657.1639-.8284.1086-.2626.2679-.5012.4689-.7022.2009-.201.4396-.3603.7022-.4689s.5441-.1643.8283-.1639z" opacity=".1"/><path d="m24.5181 17.3069v19.7155c.0021.1415-.0173.2825-.0577.4182-.0923.4249-.3272.8053-.6656 1.0782-.3385.2729-.7601.4217-1.1949.4218h-8.0621c-.2775-.4613-.5187-.9435-.7211-1.4423-.1888-.4703-.3478-.952-.476-1.4422-.2377-.9431-.3588-1.9119-.3605-2.8845v-13.7013c-.0004-.2842.0553-.5657.1639-.8284.1086-.2626.2679-.5012.4689-.7022.2009-.201.4396-.3603.7022-.4689s.5441-.1643.8283-.1639z" opacity=".2"/><path d="m24.5181 17.3069v16.831c-.0022.508-.205.9946-.5643 1.3539-.3592.3592-.8458.562-1.3539.5643h-9.2592c-.2377-.9431-.3588-1.9119-.3605-2.8845v-13.7013c-.0004-.2842.0553-.5657.1639-.8284.1086-.2626.2679-.5012.4689-.7022.2009-.201.4396-.3603.7022-.4689s.5441-.1643.8283-.1639z" opacity=".2"/><path d="m15.1435 17.3069c-.2842-.0004-.5657.0553-.8283.1639s-.5013.2679-.7022.4689c-.201.201-.3603.4396-.4689.7022-.1086.2627-.1643.5442-.1639.8284v13.7013c.0017.9726.1228 1.9414.3605 2.8845h7.817c.508-.0023.9946-.2051 1.3539-.5643.3592-.3593.562-.8459.5643-1.3539v-16.831z" opacity=".2"/></g><path d="m1.92297 11.5379h19.22993c.51 0 .9991.2026 1.3597.5633.3607.3606.5633.8497.5633 1.3597v19.2299c0 .51-.2026.9991-.5633 1.3598-.3606.3606-.8497.5632-1.3597.5632h-19.22993c-.51001 0-.999134-.2026-1.359767-.5632-.360632-.3606-.56323352-.8498-.56323352-1.3598v-19.2299c0-.51.20260152-.9991.56323352-1.3597.360633-.3607.849757-.5633 1.359767-.5633z" fill="#4b53bc"/><path d="m17.2775 18.7131h-4.3105v11.5672h-2.833v-11.5672h-4.33554v-2.8417h11.47904z" fill="#fff"/></svg>